<svg height="512pt" viewBox="0 -64 512.00918 512" width="512pt" xmlns="http://www.w3.org/2000/svg"><path d="m340.609375 76.804688c-2.261719 0-4.4375-.898438-6.035156-2.5l-24.132813-24.140626c-3.335937-3.339843-3.335937-8.738281 0-12.066406l30.601563-30.59375c9.667969-9.675781 26.53125-9.675781 36.207031 0 4.832031 4.832032 7.492188 11.265625 7.492188 18.101563 0 6.832031-2.660157 13.265625-7.5 18.105469l-30.601563 30.59375c-1.601563 1.601562-3.769531 2.5-6.03125 2.5zm-12.066406-32.675782 12.066406 12.074219 24.566406-24.566406c1.613281-1.613281 2.5-3.753907 2.5-6.03125 0-2.28125-.886719-4.421875-2.5-6.035157-3.226562-3.234374-8.847656-3.226562-12.066406 0zm0 0"/><path d="m8.542969 384.738281c-2.210938 0-4.402344-.863281-6.042969-2.5-2.628906-2.621093-3.25-6.640625-1.550781-9.941406l25.597656-49.742187c.402344-.785157.929687-1.5 1.554687-2.132813l312.925782-312.925781c9.976562-9.984375 26.214844-9.992188 36.207031 0 9.984375 9.976562 9.984375 26.222656 0 36.199218l-193.152344 193.152344c-1.628906 1.628906-3.917969 2.625-6.160156 2.5-7.910156-.105468-14.449219-.0625-20.539063.585938-7.9375.855468-21.984374 3.96875-26.949218 15.378906-3.003906 6.894531-4.285156 15.804688-4.753906 21.726562.433593.203126.886718.425782 1.355468.648438 2.527344 1.175781 4.320313 3.507812 4.804688 6.246094.488281 2.746094-.398438 5.546875-2.371094 7.515625l-65.179688 65.171875c-.621093.621094-1.339843 1.152344-2.132812 1.550781l-49.730469 25.601563c-1.222656.65625-2.550781.964843-3.882812.964843zm32.570312-53.179687-12.800781 24.863281 24.867188-12.796875 56.722656-56.730469c-.972656-1.410156-1.519532-3.089843-1.519532-4.847656 0-.539063.035157-9.609375 2.21875-19.976563zm318.03125-314.480469c-2.1875 0-4.378906.835937-6.042969 2.492187l-204.457031 204.46875c2.226563-.453124 4.539063-.804687 6.9375-1.058593 5.9375-.632813 12.003907-.75 18.976563-.726563l190.617187-190.609375c1.605469-1.613281 2.492188-3.753906 2.492188-6.03125 0-2.28125-.886719-4.421875-2.492188-6.035156-1.664062-1.671875-3.847656-2.5-6.03125-2.5zm0 0"/><path d="m81.058594 288.070312c-1.324219 0-2.652344-.304687-3.890625-.9375-7.679688-3.933593-13.421875-10.9375-15.753907-19.207031l-18.261718-64.941406c-.152344-.554687-.253906-1.125-.296875-1.695313-1.894531-26.496093 10.496093-52.34375 32.339843-67.472656l41.976563-29.058594c25.976563-17.980468 58.292969-23.320312 88.679687-14.632812l46.15625 12.476562c2.933594.792969 5.230469 3.097657 6.015626 6.039063.785156 2.945313-.058594 6.078125-2.210938 8.234375l-71.722656 71.722656c-2.902344 2.894532-7.457032 3.320313-10.835938 1.023438l-9.933594-6.765625c-4.933593-3.292969-11.066406-4.113281-16.757812-2.210938l-18.03125 6.972657c-.121094.042968-.25.09375-.367188.136718-6.238281 2.082032-11.742187 10.085938-12.816406 18.464844l5.503906 40.894531c.355469 2.636719-.539062 5.289063-2.425781 7.167969l-31.308593 31.308594c-1.65625 1.621094-3.839844 2.480468-6.058594 2.480468zm-21.222656-88.847656 18.015624 64.078125c.503907 1.78125 1.363282 3.4375 2.5 4.878907l22.996094-22.996094-5.078125-37.726563c-.085937-.632812-.09375-1.269531-.042969-1.910156 1.195313-13.167969 9.925782-29.015625 24.3125-33.929687l18.234376-7.039063c11.101562-3.703125 22.65625-2.160156 32.070312 4.113281l4.164062 2.839844 56.300782-56.300781-32.039063-8.664063c-25.558593-7.304687-52.636719-2.832031-74.386719 12.230469l-41.976562 29.054687c-16.664062 11.539063-26.222656 31.164063-25.070312 51.371094zm0 0"/><path d="m340.464844 324.707031c-2.398438 0-4.78125-.113281-7.152344-.335937-12.355469-1.152344-22.5625-5.859375-32.417969-10.410156l-2.378906-1.089844c-17.136719-7.859375-36.566406-11.625-51.585937-14.03125-25.523438-4.078125-52.515626-5.527344-80.214844-4.386719-5.339844.230469-10.757813 1.359375-16.484375 2.542969-1.929688.402344-3.859375.804687-5.785157 1.171875-1.75.332031-3.660156.449219-5.855468.332031-.246094-.007812-1.289063-.121094-1.535156-.152344-1.785157-.191406-3.394532-.445312-5.070313-.847656l-1.621094-.425781c-1.59375-.433594-3.148437-.929688-4.691406-1.5-.035156-.011719-.792969-.292969-.828125-.308594-6.648438-2.550781-12.050781-5.75-12.28125-5.886719-2.585938-1.539062-4.171875-4.328125-4.171875-7.332031 0-.769531.070313-19.011719 6.402344-33.535156 6.234375-14.328125 20.726562-23.398438 40.789062-25.53125 6.945313-.734375 14.042969-.792969 22.59375-.691407l17.589844.289063c4.90625.042969 9.8125.027344 14.488281-.265625l1.511719-.082031c3.402344-.179688 6.152344-.421875 8.359375-.691407l-18.164062-12.390624c-2.101563-1.425782-3.457032-3.722657-3.695313-6.257813-.242187-2.523437.664063-5.035156 2.464844-6.824219l81.015625-81.015625c2.160156-2.167969 5.332031-2.996093 8.277344-2.203125l118.367187 32.289063c.347656.105469 1.550781.035156 2.363281-.007813.828125-.042968 1.664063-.074218 2.507813-.074218h90.214843c4.710938 0 8.53125 3.820312 8.53125 8.53125v128c0 4.710937-3.820312 8.535156-8.53125 8.535156h-81.691406c-4.523437 0-9.554687 2.199218-13.804687 6.039062-12.964844 11.632813-27.820313 20.191406-42.992188 24.78125-8.226562 2.507813-16.445312 3.765625-24.523437 3.765625zm-155.519532-47.703125c22.21875 0 43.894532 1.664063 64.671876 4.984375 16.09375 2.566407 36.992187 6.648438 56.003906 15.359375l2.425781 1.117188c9.335937 4.308594 17.40625 8.03125 26.851563 8.917968 8.125.75 16.605468-.171874 25.148437-2.757812 12.800781-3.871094 25.421875-11.175781 36.515625-21.136719 7.441406-6.714843 16.398438-10.425781 25.222656-10.425781h73.15625v-110.933594l-83.328125.058594c-2.113281.101562-4.734375.238281-7.722656-.570312l-113.585937-30.984376-70.230469 70.21875 21.113281 14.398438c2.328125 1.585938 3.726562 4.230469 3.726562 7.046875 0 15.273437-21.785156 16.417969-32.253906 16.972656l-1.332031.078125c-5.425781.339844-11.023437.339844-15.769531.296875l-17.449219-.289062c-8.132813-.113281-14.644531-.058594-20.738281.589843-7.933594.851563-21.980469 3.964844-26.945313 15.375-3.003906 6.894532-4.277343 15.796876-4.746093 21.710938 1.527343.742188 3.335937 1.558594 5.265624 2.300781 1.707032.625 2.816407.972657 3.957032 1.289063l1.058594.28125c.898437.214844 1.785156.351562 2.664062.4375.023438 0 .945312.117187.972656.128906.878906.039062 1.398438-.019531 1.621094-.070312 1.84375-.359376 3.679688-.734376 5.511719-1.117188 6.144531-1.28125 12.503906-2.601562 19.242187-2.882812 6.375-.265626 12.691406-.394532 18.972656-.394532zm0 0"/><path d="m8.542969 384.738281c-2.210938 0-4.402344-.863281-6.042969-2.5-2.628906-2.621093-3.25-6.640625-1.550781-9.941406l25.597656-49.742187c.402344-.785157.929687-1.5 1.554687-2.132813l25.230469-25.234375c3.195313-3.199219 8.320313-3.34375 11.699219-.347656l25.96875 23.039062c1.773438 1.578125 2.816406 3.8125 2.867188 6.1875.058593 2.371094-.878907 4.65625-2.578126 6.3125l-27.066406 26.335938c-.605468.585937-1.296875 1.082031-2.046875 1.46875l-49.734375 25.597656c-1.238281.648438-2.566406.957031-3.898437.957031zm32.570312-53.179687-12.800781 24.863281 24.917969-12.824219 19.566406-19.039062-13.078125-11.605469zm0 0"/></svg>